<svg width="40" height="40" viewBox="0 0 40 40" fill="none" xmlns="http://www.w3.org/2000/svg">
<path d="M13.3333 33.3333H26.6666V28.3333C26.6666 26.5 26.0138 24.9305 24.7083 23.625C23.4027 22.3194 21.8333 21.6666 20 21.6666C18.1666 21.6666 16.5972 22.3194 15.2916 23.625C13.9861 24.9305 13.3333 26.5 13.3333 28.3333V33.3333ZM20 18.3333C21.8333 18.3333 23.4027 17.6805 24.7083 16.375C26.0138 15.0694 26.6666 13.5 26.6666 11.6666V6.66665H13.3333V11.6666C13.3333 13.5 13.9861 15.0694 15.2916 16.375C16.5972 17.6805 18.1666 18.3333 20 18.3333ZM31.6666 36.6666H8.33329C7.86107 36.6666 7.46496 36.5066 7.14496 36.1866C6.82607 35.8678 6.66663 35.4722 6.66663 35C6.66663 34.5278 6.82607 34.1322 7.14496 33.8133C7.46496 33.4933 7.86107 33.3333 8.33329 33.3333H9.99996V28.3333C9.99996 26.6389 10.3961 25.0483 11.1883 23.5616C11.9794 22.0761 13.0833 20.8889 14.5 20C13.0833 19.1111 11.9794 17.9233 11.1883 16.4366C10.3961 14.9511 9.99996 13.3611 9.99996 11.6666V6.66665H8.33329C7.86107 6.66665 7.46496 6.50665 7.14496 6.18665C6.82607 5.86776 6.66663 5.4722 6.66663 4.99998C6.66663 4.52776 6.82607 4.13165 7.14496 3.81165C7.46496 3.49276 7.86107 3.33331 8.33329 3.33331H31.6666C32.1388 3.33331 32.5344 3.49276 32.8533 3.81165C33.1733 4.13165 33.3333 4.52776 33.3333 4.99998C33.3333 5.4722 33.1733 5.86776 32.8533 6.18665C32.5344 6.50665 32.1388 6.66665 31.6666 6.66665H30V11.6666C30 13.3611 29.6044 14.9511 28.8133 16.4366C28.0211 17.9233 26.9166 19.1111 25.5 20C26.9166 20.8889 28.0211 22.0761 28.8133 23.5616C29.6044 25.0483 30 26.6389 30 28.3333V33.3333H31.6666C32.1388 33.3333 32.5344 33.4933 32.8533 33.8133C33.1733 34.1322 33.3333 34.5278 33.3333 35C33.3333 35.4722 33.1733 35.8678 32.8533 36.1866C32.5344 36.5066 32.1388 36.6666 31.6666 36.6666Z" fill="black"/>
</svg>
