<svg width="46" height="46" viewBox="0 0 46 46" fill="none" xmlns="http://www.w3.org/2000/svg">
<path d="M24.875 22.25L29.5625 26.9375C29.9062 27.2812 30.0781 27.7187 30.0781 28.25C30.0781 28.7812 29.9062 29.2187 29.5625 29.5625C29.2188 29.9062 28.7812 30.0781 28.25 30.0781C27.7188 30.0781 27.2812 29.9062 26.9375 29.5625L21.6875 24.3125C21.5 24.125 21.3594 23.9137 21.2656 23.6787C21.1719 23.445 21.125 23.2031 21.125 22.9531V15.5C21.125 14.9687 21.305 14.5231 21.665 14.1631C22.0238 13.8044 22.4688 13.625 23 13.625C23.5312 13.625 23.9769 13.8044 24.3369 14.1631C24.6956 14.5231 24.875 14.9687 24.875 15.5V22.25ZM23 39.875C19.2188 39.875 15.8281 38.7575 12.8281 36.5225C9.82812 34.2887 7.8125 31.375 6.78125 27.7812C6.625 27.2187 6.68 26.6875 6.94625 26.1875C7.21125 25.6875 7.625 25.375 8.1875 25.25C8.71875 25.125 9.19562 25.2419 9.61812 25.6006C10.0394 25.9606 10.3281 26.4062 10.4844 26.9375C11.2969 29.6875 12.8675 31.9062 15.1962 33.5937C17.5237 35.2812 20.125 36.125 23 36.125C26.6562 36.125 29.7575 34.8512 32.3037 32.3037C34.8512 29.7575 36.125 26.6562 36.125 23C36.125 19.3437 34.8512 16.2419 32.3037 13.6944C29.7575 11.1481 26.6562 9.875 23 9.875C20.8438 9.875 18.8281 10.375 16.9531 11.375C15.0781 12.375 13.5 13.75 12.2188 15.5H15.5C16.0312 15.5 16.4769 15.6794 16.8369 16.0381C17.1956 16.3981 17.375 16.8437 17.375 17.375C17.375 17.9062 17.1956 18.3512 16.8369 18.71C16.4769 19.07 16.0312 19.25 15.5 19.25H8C7.46875 19.25 7.02375 19.07 6.665 18.71C6.305 18.3512 6.125 17.9062 6.125 17.375V9.875C6.125 9.34375 6.305 8.89812 6.665 8.53813C7.02375 8.17938 7.46875 8 8 8C8.53125 8 8.97687 8.17938 9.33687 8.53813C9.69562 8.89812 9.875 9.34375 9.875 9.875V12.4062C11.4688 10.4062 13.4144 8.85937 15.7119 7.76562C18.0081 6.67187 20.4375 6.125 23 6.125C25.3438 6.125 27.5394 6.57 29.5869 7.46C31.6331 8.35125 33.4144 9.55437 34.9306 11.0694C36.4456 12.5856 37.6488 14.3669 38.54 16.4131C39.43 18.4606 39.875 20.6562 39.875 23C39.875 25.3437 39.43 27.5387 38.54 29.585C37.6488 31.6325 36.4456 33.4137 34.9306 34.9287C33.4144 36.445 31.6331 37.6487 29.5869 38.54C27.5394 39.43 25.3438 39.875 23 39.875Z" fill="white"/>
</svg>
