<svg width="40" height="40" viewBox="0 0 40 40" fill="none" xmlns="http://www.w3.org/2000/svg">
<path d="M20 18.3333C21.8334 18.3333 23.4028 17.6805 24.7084 16.375C26.0139 15.0694 26.6667 13.5 26.6667 11.6666V6.66665H13.3334V11.6666C13.3334 13.5 13.9861 15.0694 15.2917 16.375C16.5972 17.6805 18.1667 18.3333 20 18.3333ZM31.6667 36.6666H8.33335C7.86113 36.6666 7.46502 36.5066 7.14502 36.1866C6.82613 35.8678 6.66669 35.4722 6.66669 35C6.66669 34.5278 6.82613 34.1322 7.14502 33.8133C7.46502 33.4933 7.86113 33.3333 8.33335 33.3333H10V28.3333C10 26.6389 10.3961 25.0483 11.1884 23.5616C11.9795 22.0761 13.0834 20.8889 14.5 20C13.0834 19.1111 11.9795 17.9233 11.1884 16.4366C10.3961 14.9511 10 13.3611 10 11.6666V6.66665H8.33335C7.86113 6.66665 7.46502 6.50665 7.14502 6.18665C6.82613 5.86776 6.66669 5.4722 6.66669 4.99998C6.66669 4.52776 6.82613 4.13165 7.14502 3.81165C7.46502 3.49276 7.86113 3.33331 8.33335 3.33331H31.6667C32.1389 3.33331 32.5345 3.49276 32.8534 3.81165C33.1734 4.13165 33.3334 4.52776 33.3334 4.99998C33.3334 5.4722 33.1734 5.86776 32.8534 6.18665C32.5345 6.50665 32.1389 6.66665 31.6667 6.66665H30V11.6666C30 13.3611 29.6045 14.9511 28.8134 16.4366C28.0211 17.9233 26.9167 19.1111 25.5 20C26.9167 20.8889 28.0211 22.0761 28.8134 23.5616C29.6045 25.0483 30 26.6389 30 28.3333V33.3333H31.6667C32.1389 33.3333 32.5345 33.4933 32.8534 33.8133C33.1734 34.1322 33.3334 34.5278 33.3334 35C33.3334 35.4722 33.1734 35.8678 32.8534 36.1866C32.5345 36.5066 32.1389 36.6666 31.6667 36.6666Z" fill="black"/>
</svg>
