<svg width="46" height="46" viewBox="0 0 46 46" fill="none" xmlns="http://www.w3.org/2000/svg">
<path d="M17.8438 41.75L17.0938 35.75C16.6875 35.5938 16.305 35.4063 15.9463 35.1875C15.5863 34.9688 15.2344 34.7344 14.8906 34.4844L9.3125 36.8281L4.15625 27.9219L8.98438 24.2656C8.95313 24.0469 8.9375 23.8356 8.9375 23.6319V22.3663C8.9375 22.1638 8.95313 21.9531 8.98438 21.7344L4.15625 18.0781L9.3125 9.17188L14.8906 11.5156C15.2344 11.2656 15.5938 11.0313 15.9688 10.8125C16.3438 10.5938 16.7188 10.4063 17.0938 10.25L17.8438 4.25H28.1563L28.9062 10.25C29.3125 10.4063 29.6956 10.5938 30.0556 10.8125C30.4144 11.0313 30.7656 11.2656 31.1094 11.5156L36.6875 9.17188L41.8437 18.0781L37.0156 21.7344C37.0469 21.9531 37.0625 22.1638 37.0625 22.3663V23.6319C37.0625 23.8356 37.0313 24.0469 36.9688 24.2656L41.7969 27.9219L36.6406 36.8281L31.1094 34.4844C30.7656 34.7344 30.4063 34.9688 30.0313 35.1875C29.6563 35.4063 29.2812 35.5938 28.9062 35.75L28.1563 41.75H17.8438ZM23.0938 29.5625C24.9063 29.5625 26.4531 28.9219 27.7344 27.6406C29.0156 26.3594 29.6563 24.8125 29.6563 23C29.6563 21.1875 29.0156 19.6406 27.7344 18.3594C26.4531 17.0781 24.9063 16.4375 23.0938 16.4375C21.25 16.4375 19.695 17.0781 18.4288 18.3594C17.1638 19.6406 16.5313 21.1875 16.5313 23C16.5313 24.8125 17.1638 26.3594 18.4288 27.6406C19.695 28.9219 21.25 29.5625 23.0938 29.5625Z" fill="white"/>
</svg>
