<svg width="40" height="40" viewBox="0 0 40 40" fill="none" xmlns="http://www.w3.org/2000/svg">
<path d="M23.3334 14.625C23.3334 14.375 23.4239 14.1178 23.605 13.8534C23.785 13.59 23.9861 13.4167 24.2084 13.3334C25.0139 13.0556 25.8195 12.8472 26.625 12.7084C27.4306 12.5695 28.2778 12.5 29.1667 12.5C29.7222 12.5 30.2711 12.5345 30.8134 12.6034C31.3545 12.6734 31.8889 12.7639 32.4167 12.875C32.6667 12.9306 32.8817 13.0695 33.0617 13.2917C33.2428 13.5139 33.3334 13.7639 33.3334 14.0417C33.3334 14.5139 33.1806 14.8611 32.875 15.0834C32.5695 15.3056 32.1806 15.3611 31.7084 15.25C31.3195 15.1667 30.91 15.1039 30.48 15.0617C30.0489 15.0206 29.6111 15 29.1667 15C28.4445 15 27.7361 15.0695 27.0417 15.2084C26.3472 15.3472 25.6806 15.5278 25.0417 15.75C24.5417 15.9445 24.1322 15.9306 23.8134 15.7084C23.4934 15.4861 23.3334 15.125 23.3334 14.625ZM23.3334 23.7917C23.3334 23.5417 23.4239 23.2845 23.605 23.02C23.785 22.7567 23.9861 22.5834 24.2084 22.5C25.0139 22.2222 25.8195 22.0139 26.625 21.875C27.4306 21.7361 28.2778 21.6667 29.1667 21.6667C29.7222 21.6667 30.2711 21.7011 30.8134 21.77C31.3545 21.84 31.8889 21.9306 32.4167 22.0417C32.6667 22.0972 32.8817 22.2361 33.0617 22.4584C33.2428 22.6806 33.3334 22.9306 33.3334 23.2084C33.3334 23.6806 33.1806 24.0278 32.875 24.25C32.5695 24.4722 32.1806 24.5278 31.7084 24.4167C31.3195 24.3334 30.91 24.2706 30.48 24.2284C30.0489 24.1872 29.6111 24.1667 29.1667 24.1667C28.4445 24.1667 27.7361 24.2295 27.0417 24.355C26.3472 24.4795 25.6806 24.6528 25.0417 24.875C24.5417 25.0695 24.1322 25.0622 23.8134 24.8534C23.4934 24.6456 23.3334 24.2917 23.3334 23.7917ZM23.3334 19.2084C23.3334 18.9584 23.4239 18.7011 23.605 18.4367C23.785 18.1734 23.9861 18 24.2084 17.9167C25.0139 17.6389 25.8195 17.4306 26.625 17.2917C27.4306 17.1528 28.2778 17.0834 29.1667 17.0834C29.7222 17.0834 30.2711 17.1178 30.8134 17.1867C31.3545 17.2567 31.8889 17.3472 32.4167 17.4584C32.6667 17.5139 32.8817 17.6528 33.0617 17.875C33.2428 18.0972 33.3334 18.3472 33.3334 18.625C33.3334 19.0972 33.1806 19.4445 32.875 19.6667C32.5695 19.8889 32.1806 19.9445 31.7084 19.8334C31.3195 19.75 30.91 19.6872 30.48 19.645C30.0489 19.6039 29.6111 19.5834 29.1667 19.5834C28.4445 19.5834 27.7361 19.6528 27.0417 19.7917C26.3472 19.9306 25.6806 20.1111 25.0417 20.3334C24.5417 20.5278 24.1322 20.5139 23.8134 20.2917C23.4934 20.0695 23.3334 19.7084 23.3334 19.2084ZM10.8334 26.6667C12.1389 26.6667 13.41 26.8122 14.6467 27.1034C15.8822 27.3956 17.1111 27.8334 18.3334 28.4167V12C17.1945 11.3334 15.9861 10.8334 14.7084 10.5C13.4306 10.1667 12.1389 10 10.8334 10C9.83335 10 8.84058 10.0972 7.85502 10.2917C6.86835 10.4861 5.91669 10.7778 5.00002 11.1667V27.6667C5.97224 27.3334 6.9378 27.0834 7.89669 26.9167C8.85447 26.75 9.83335 26.6667 10.8334 26.6667ZM21.6667 28.4167C22.8889 27.8334 24.1184 27.3956 25.355 27.1034C26.5906 26.8122 27.8611 26.6667 29.1667 26.6667C30.1667 26.6667 31.1461 26.75 32.105 26.9167C33.0628 27.0834 34.0278 27.3334 35 27.6667V11.1667C34.0834 10.7778 33.1322 10.4861 32.1467 10.2917C31.16 10.0972 30.1667 10 29.1667 10C27.8611 10 26.5695 10.1667 25.2917 10.5C24.0139 10.8334 22.8056 11.3334 21.6667 12V28.4167ZM20 32.4584C19.6111 32.4584 19.2434 32.41 18.8967 32.3134C18.5489 32.2156 18.2222 32.0834 17.9167 31.9167C16.8334 31.2778 15.6945 30.7989 14.5 30.48C13.3056 30.16 12.0834 30 10.8334 30C9.66669 30 8.52113 30.1528 7.39669 30.4584C6.27113 30.7639 5.19446 31.1945 4.16669 31.75C3.58335 32.0556 3.02113 32.0417 2.48002 31.7084C1.9378 31.375 1.66669 30.8889 1.66669 30.25V10.1667C1.66669 9.86113 1.74335 9.56946 1.89669 9.29169C2.04891 9.01391 2.2778 8.80558 2.58335 8.66669C3.86113 8.00002 5.19447 7.50002 6.58335 7.16669C7.97224 6.83335 9.38891 6.66669 10.8334 6.66669C12.4445 6.66669 14.0211 6.87502 15.5634 7.29169C17.1045 7.70835 18.5834 8.33335 20 9.16669C21.4167 8.33335 22.8961 7.70835 24.4384 7.29169C25.9795 6.87502 27.5556 6.66669 29.1667 6.66669C30.6111 6.66669 32.0278 6.83335 33.4167 7.16669C34.8056 7.50002 36.1389 8.00002 37.4167 8.66669C37.7222 8.80558 37.9517 9.01391 38.105 9.29169C38.2572 9.56946 38.3334 9.86113 38.3334 10.1667V30.25C38.3334 30.8889 38.0628 31.375 37.5217 31.7084C36.9795 32.0417 36.4167 32.0556 35.8334 31.75C34.8056 31.1945 33.7289 30.7639 32.6034 30.4584C31.4789 30.1528 30.3334 30 29.1667 30C27.9167 30 26.6945 30.16 25.5 30.48C24.3056 30.7989 23.1667 31.2778 22.0834 31.9167C21.7778 32.0834 21.4517 32.2156 21.105 32.3134C20.7572 32.41 20.3889 32.4584 20 32.4584Z" fill="black"/>
</svg>
