<svg width="40" height="40" viewBox="0 0 40 40" fill="none" xmlns="http://www.w3.org/2000/svg">
<path d="M18.4166 25.8334L25.3333 21.4167C25.8611 21.0834 26.125 20.6111 26.125 20C26.125 19.3889 25.8611 18.9167 25.3333 18.5834L18.4166 14.1667C17.8611 13.7778 17.2916 13.75 16.7083 14.0834C16.125 14.4167 15.8333 14.9028 15.8333 15.5417V24.4584C15.8333 25.0972 16.125 25.5834 16.7083 25.9167C17.2916 26.25 17.8611 26.2222 18.4166 25.8334V25.8334ZM6.66665 33.3334C5.74998 33.3334 4.96554 33.0072 4.31331 32.355C3.65998 31.7017 3.33331 30.9167 3.33331 30V10C3.33331 9.08335 3.65998 8.29891 4.31331 7.64669C4.96554 6.99335 5.74998 6.66669 6.66665 6.66669H33.3333C34.25 6.66669 35.035 6.99335 35.6883 7.64669C36.3405 8.29891 36.6666 9.08335 36.6666 10V30C36.6666 30.9167 36.3405 31.7017 35.6883 32.355C35.035 33.0072 34.25 33.3334 33.3333 33.3334H6.66665Z" fill="black"/>
</svg>
