<svg width="40" height="40" viewBox="0 0 40 40" fill="none" xmlns="http://www.w3.org/2000/svg">
<path d="M8.33333 36.6666C7.41667 36.6666 6.63167 36.3405 5.97833 35.6883C5.32611 35.035 5 34.25 5 33.3333V9.99998C5 9.08331 5.32611 8.29887 5.97833 7.64665C6.63167 6.99331 7.41667 6.66665 8.33333 6.66665H10V4.99998C10 4.52776 10.1594 4.13165 10.4783 3.81165C10.7983 3.49276 11.1944 3.33331 11.6667 3.33331C12.1389 3.33331 12.535 3.49276 12.855 3.81165C13.1739 4.13165 13.3333 4.52776 13.3333 4.99998V6.66665H26.6667V4.99998C26.6667 4.52776 26.8267 4.13165 27.1467 3.81165C27.4656 3.49276 27.8611 3.33331 28.3333 3.33331C28.8056 3.33331 29.2011 3.49276 29.52 3.81165C29.84 4.13165 30 4.52776 30 4.99998V6.66665H31.6667C32.5833 6.66665 33.3683 6.99331 34.0217 7.64665C34.6739 8.29887 35 9.08331 35 9.99998V33.3333C35 34.25 34.6739 35.035 34.0217 35.6883C33.3683 36.3405 32.5833 36.6666 31.6667 36.6666H8.33333ZM8.33333 33.3333H31.6667V16.6666H8.33333V33.3333ZM8.33333 13.3333H31.6667V9.99998H8.33333V13.3333ZM8.33333 13.3333V9.99998V13.3333ZM19.2917 30.1666L17.9167 27.0833L14.8333 25.7083C14.5278 25.5694 14.375 25.3333 14.375 25C14.375 24.6666 14.5278 24.4305 14.8333 24.2916L17.9167 22.9166L19.2917 19.8333C19.4306 19.5278 19.6667 19.375 20 19.375C20.3333 19.375 20.5694 19.5278 20.7083 19.8333L22.0833 22.9166L25.1667 24.2916C25.4722 24.4305 25.625 24.6666 25.625 25C25.625 25.3333 25.4722 25.5694 25.1667 25.7083L22.0833 27.0833L20.7083 30.1666C20.5694 30.4722 20.3333 30.625 20 30.625C19.6667 30.625 19.4306 30.4722 19.2917 30.1666Z" fill="black"/>
</svg>
